<svg xmlns="http://www.w3.org/2000/svg" viewBox="0 0 143.76 153.13"><defs><style>.cls-1{fill:#f9f9f9;}</style></defs><title>codegrade-small-light</title><g id="Layer_2" data-name="Layer 2"><g id="Layer_1-2" data-name="Layer 1"><path class="cls-1" d="M107.46,83.53a38.44,38.44,0,0,0-8.8-7,18.94,18.94,0,0,0-9.4-2.6,27.41,27.41,0,0,0-20.7,8.8,27,27,0,0,0-5.6,9.2,31.64,31.64,0,0,0,0,21.6,27,27,0,0,0,5.6,9.2,27.41,27.41,0,0,0,20.7,8.8,23.81,23.81,0,0,0,10.4-2.3,22.66,22.66,0,0,0,8.2-6.7l16,17.2a36.92,36.92,0,0,1-8.3,6.2,57.38,57.38,0,0,1-9.5,4.2,59.17,59.17,0,0,1-9.2,2.3,50.32,50.32,0,0,1-7.6.7,57.62,57.62,0,0,1-20.4-3.6,48.87,48.87,0,0,1-16.6-10.2,48.3,48.3,0,0,1-11.1-15.9,50.66,50.66,0,0,1-4.1-20.7A50.66,50.66,0,0,1,41.16,82a48.3,48.3,0,0,1,11.1-15.9c4.66-4.4,10.91-1.54,17.31-3.94s15.3-1.14,24-4c5.82-1.92,8-4.69,14.19-2.36a42.05,42.05,0,0,1,16.3,11.1Z"/><g id="surface1"><path class="cls-1" d="M68.82,0A3,3,0,0,0,68,.3L1.68,31.44A2.85,2.85,0,0,0,0,34.37a2.88,2.88,0,0,0,2.29,2.46l16.45,3.52c-.13.22-.34.38-.48.6-2.92,4.76-4,11-3.68,19.74a7.62,7.62,0,0,0,1.62,13.66c0,19.74-10.77,27.64-10.57,29.3.1.85,9.66,4.69,11.82,4.43,3.32-.39,10.66-6.9,9.21-19.12A91.41,91.41,0,0,0,23.3,72.6a7.07,7.07,0,0,0-1.78-12c-.29-8,.68-12.74,2.66-16,2.29-3.76,6.42-6.36,12.68-9.88l1.19-.69c.09,0,.08-.16.16-.2,1.09-.58,2.23-1.17,3.09-1.64,4.1-2.28,7.5-4,10.63-5.62.94-.5,1.51-.91,2.38-1.38,2.83-1.49,4.87-2.53,6.87-3.54.75-.39,1.23-.62,1.89-.95,4.54-2.27,6.49-3.11,6.55-3.14a3.43,3.43,0,1,1,2.92,6.21c-.13.06-7.81,3.4-27.78,14.57-1.29.72-2.61,1.27-3.79,1.91-2.37,1.28-4.33,2.44-6,3.43l39,8a3.18,3.18,0,0,0,.92.07,3.23,3.23,0,0,0,.88-.28l66.27-31.14a2.88,2.88,0,0,0,1.66-2.93,2.86,2.86,0,0,0-2.3-2.46L69.74.09A2.82,2.82,0,0,0,68.82,0Zm51.25,39.13L78.48,58.62a10.22,10.22,0,0,1-5.39.63L29.57,50.18a23.47,23.47,0,0,0-.1,8.4c2.93,1.24,6,4.12,6.6,9.6a11,11,0,0,1-2.36,7.75c7,6.47,24.77,9.64,44.93,7.26,25.4-3,45-13.63,43.83-23.75Z"/></g></g></g></svg>