<?xml version="1.0" encoding="UTF-8" standalone="no"?>
<svg
   xmlns="http://www.w3.org/2000/svg"
   xmlns:svg="http://www.w3.org/2000/svg"
   xmlns:sodipodi="http://sodipodi.sourceforge.net/DTD/sodipodi-0.dtd"
   xmlns:inkscape="http://www.inkscape.org/namespaces/inkscape"
   viewBox="0 0 50.331491 56.863463"
   width="50.33149"
   height="56.863464">
  <title>CodeGra.de</title>
  <g transform="translate(7.4523437e-4,-3.5116924)"
     fill="#ffffff">
    <path d="M 23.64,6.25 A 0.9,0.9 0 0 0 23.21,6.4 L 0.47,22 a 1.14,1.14 0 0 0 0.21,2 L 4.34,25.48 6,41.2 a 3.25,3.25 0 0 0 -1.68,3.26 c 0.15,1.38 2,3.74 2.73,4.69 l 1,1.2 L 8.77,49 c 0.55,-1.1 1.82,-3.79 1.67,-5.17 A 3.25,3.25 0 0 0 8.1,41 L 6.52,26.33 8.65,27.19 8.34,24.35 C 7.93,20.6 12.88,19.3 15,18.74 a 86.76,86.76 0 0 1 19.8,-2.21 c 2.18,0.09 7.28,0.31 7.69,4.06 l 0.31,2.84 7,-4.83 a 1.14,1.14 0 0 0 -0.21,-2 L 24.09,6.3 A 0.89,0.89 0 0 0 23.64,6.25 m 1.4,13 c -5.64,0.61 -15,2.05 -14.74,4.87 l 0.54,5 c 2,-1.19 6.17,-2.48 14.9,-3.42 8.73,-0.94 13.09,-0.57 15.28,0.16 l -0.54,-5 C 40.18,18 30.67,18.64 25,19.25 m 1,8.65 c -10.48,1.1 -14.68,2.92 -14.89,3.79 0.32,2.81 9.81,2.22 15.44,1.61 5.63,-0.61 14.62,-2 14.73,-4.7 a 0.94,0.94 0 0 0 0,-0.17 C 40.92,27.63 36.43,26.77 25.96,27.9"
        transform="translate(0.03,-4.02)" />
    <path d="m 39.91,30.63 v 10.52 a 19.29,19.29 0 0 0 -4.85,-4.54 9.45,9.45 0 0 0 -5,-1.27 9.77,9.77 0 0 0 -7.42,3.13 11,11 0 0 0 -3,7.84 11.22,11.22 0 0 0 2.85,7.91 9.6,9.6 0 0 0 7.35,3.09 10.05,10.05 0 0 0 5,-1.23 19.93,19.93 0 0 0 5,-4.64 V 61.89 A 20.77,20.77 0 0 1 30.21,64.39 18.43,18.43 0 0 1 17,59.25 17.13,17.13 0 0 1 11.66,46.42 a 17.36,17.36 0 0 1 5.41,-12.94 18.32,18.32 0 0 1 13.29,-5.27 19.86,19.86 0 0 1 9.55,2.42 z"
          transform="translate(0.03,-7.5316924)" />
  </g>
</svg>
